<mxfile host="www.draw.io" modified="2020-03-11T10:04:00.490Z" agent="Mozilla/5.0 (X11; Linux x86_64) AppleWebKit/537.36 (KHTML, like Gecko) Chrome/79.0.3945.117 Safari/537.36" etag="c6_OkqDIFHevO_YNhvMP" version="12.8.2" type="github">
  <diagram id="C5RBs43oDa-KdzZeNtuy" name="Page-1">
    <mxGraphModel dx="1357" dy="728" grid="1" gridSize="10" guides="1" tooltips="1" connect="1" arrows="1" fold="1" page="1" pageScale="1" pageWidth="827" pageHeight="1169" math="0" shadow="0">
      <root>
        <mxCell id="WIyWlLk6GJQsqaUBKTNV-0" />
        <mxCell id="WIyWlLk6GJQsqaUBKTNV-1" parent="WIyWlLk6GJQsqaUBKTNV-0" />
        <mxCell id="w5TJY4iVv_PcMnXrMIsC-8" style="edgeStyle=orthogonalEdgeStyle;rounded=0;orthogonalLoop=1;jettySize=auto;html=1;exitX=1;exitY=0.5;exitDx=0;exitDy=0;entryX=0;entryY=0.5;entryDx=0;entryDy=0;" edge="1" parent="WIyWlLk6GJQsqaUBKTNV-1" source="WIyWlLk6GJQsqaUBKTNV-3" target="WIyWlLk6GJQsqaUBKTNV-6">
          <mxGeometry relative="1" as="geometry" />
        </mxCell>
        <mxCell id="WIyWlLk6GJQsqaUBKTNV-3" value="Check_Full_Middle_Active_Mode" style="rounded=1;whiteSpace=wrap;html=1;fontSize=12;glass=0;strokeWidth=1;shadow=0;" parent="WIyWlLk6GJQsqaUBKTNV-1" vertex="1">
          <mxGeometry x="50" y="90" width="210" height="40" as="geometry" />
        </mxCell>
        <mxCell id="w5TJY4iVv_PcMnXrMIsC-9" value="No" style="edgeStyle=orthogonalEdgeStyle;rounded=0;orthogonalLoop=1;jettySize=auto;html=1;exitX=0.5;exitY=1;exitDx=0;exitDy=0;entryX=0.5;entryY=0;entryDx=0;entryDy=0;" edge="1" parent="WIyWlLk6GJQsqaUBKTNV-1" source="WIyWlLk6GJQsqaUBKTNV-6" target="w5TJY4iVv_PcMnXrMIsC-4">
          <mxGeometry relative="1" as="geometry" />
        </mxCell>
        <mxCell id="w5TJY4iVv_PcMnXrMIsC-24" value="Yes" style="edgeStyle=orthogonalEdgeStyle;rounded=0;orthogonalLoop=1;jettySize=auto;html=1;exitX=1;exitY=0.5;exitDx=0;exitDy=0;entryX=0;entryY=0.5;entryDx=0;entryDy=0;" edge="1" parent="WIyWlLk6GJQsqaUBKTNV-1" source="WIyWlLk6GJQsqaUBKTNV-6" target="w5TJY4iVv_PcMnXrMIsC-23">
          <mxGeometry relative="1" as="geometry" />
        </mxCell>
        <mxCell id="WIyWlLk6GJQsqaUBKTNV-6" value="Check the power source is Main power" style="rhombus;whiteSpace=wrap;html=1;shadow=0;fontFamily=Helvetica;fontSize=12;align=center;strokeWidth=1;spacing=6;spacingTop=-4;" parent="WIyWlLk6GJQsqaUBKTNV-1" vertex="1">
          <mxGeometry x="340" y="70" width="80" height="80" as="geometry" />
        </mxCell>
        <mxCell id="WIyWlLk6GJQsqaUBKTNV-7" value="Enter Full Active Mode" style="rounded=1;whiteSpace=wrap;html=1;fontSize=12;glass=0;strokeWidth=1;shadow=0;" parent="WIyWlLk6GJQsqaUBKTNV-1" vertex="1">
          <mxGeometry x="640" y="20" width="120" height="40" as="geometry" />
        </mxCell>
        <mxCell id="w5TJY4iVv_PcMnXrMIsC-16" style="edgeStyle=orthogonalEdgeStyle;rounded=0;orthogonalLoop=1;jettySize=auto;html=1;" edge="1" parent="WIyWlLk6GJQsqaUBKTNV-1" source="w5TJY4iVv_PcMnXrMIsC-0" target="WIyWlLk6GJQsqaUBKTNV-3">
          <mxGeometry relative="1" as="geometry" />
        </mxCell>
        <mxCell id="w5TJY4iVv_PcMnXrMIsC-0" value="" style="ellipse;whiteSpace=wrap;html=1;aspect=fixed;strokeColor=#000000;fillColor=#000000;" vertex="1" parent="WIyWlLk6GJQsqaUBKTNV-1">
          <mxGeometry x="145" y="20" width="20" height="20" as="geometry" />
        </mxCell>
        <mxCell id="w5TJY4iVv_PcMnXrMIsC-13" style="edgeStyle=orthogonalEdgeStyle;rounded=0;orthogonalLoop=1;jettySize=auto;html=1;entryX=0;entryY=0.5;entryDx=0;entryDy=0;" edge="1" parent="WIyWlLk6GJQsqaUBKTNV-1" source="w5TJY4iVv_PcMnXrMIsC-4" target="w5TJY4iVv_PcMnXrMIsC-12">
          <mxGeometry relative="1" as="geometry" />
        </mxCell>
        <mxCell id="w5TJY4iVv_PcMnXrMIsC-4" value="Check_Suspend_Sleep_Mode" style="rounded=1;whiteSpace=wrap;html=1;fontSize=12;glass=0;strokeWidth=1;shadow=0;" vertex="1" parent="WIyWlLk6GJQsqaUBKTNV-1">
          <mxGeometry x="50" y="210" width="210" height="40" as="geometry" />
        </mxCell>
        <mxCell id="w5TJY4iVv_PcMnXrMIsC-30" style="edgeStyle=orthogonalEdgeStyle;rounded=0;orthogonalLoop=1;jettySize=auto;html=1;exitX=1;exitY=0.5;exitDx=0;exitDy=0;entryX=0;entryY=0.5;entryDx=0;entryDy=0;" edge="1" parent="WIyWlLk6GJQsqaUBKTNV-1" source="w5TJY4iVv_PcMnXrMIsC-5" target="w5TJY4iVv_PcMnXrMIsC-28">
          <mxGeometry relative="1" as="geometry" />
        </mxCell>
        <mxCell id="w5TJY4iVv_PcMnXrMIsC-5" value="Check_System_Resume" style="rounded=1;whiteSpace=wrap;html=1;fontSize=12;glass=0;strokeWidth=1;shadow=0;" vertex="1" parent="WIyWlLk6GJQsqaUBKTNV-1">
          <mxGeometry x="50" y="370" width="210" height="40" as="geometry" />
        </mxCell>
        <mxCell id="w5TJY4iVv_PcMnXrMIsC-10" value="Enter Suspend Mode" style="rounded=1;whiteSpace=wrap;html=1;fontSize=12;glass=0;strokeWidth=1;shadow=0;" vertex="1" parent="WIyWlLk6GJQsqaUBKTNV-1">
          <mxGeometry x="640" y="210" width="120" height="40" as="geometry" />
        </mxCell>
        <mxCell id="w5TJY4iVv_PcMnXrMIsC-11" value="Enter Sleep Mode" style="rounded=1;whiteSpace=wrap;html=1;fontSize=12;glass=0;strokeWidth=1;shadow=0;" vertex="1" parent="WIyWlLk6GJQsqaUBKTNV-1">
          <mxGeometry x="640" y="310" width="120" height="40" as="geometry" />
        </mxCell>
        <mxCell id="w5TJY4iVv_PcMnXrMIsC-14" value="No" style="edgeStyle=orthogonalEdgeStyle;rounded=0;orthogonalLoop=1;jettySize=auto;html=1;exitX=0.5;exitY=1;exitDx=0;exitDy=0;" edge="1" parent="WIyWlLk6GJQsqaUBKTNV-1" source="w5TJY4iVv_PcMnXrMIsC-12" target="w5TJY4iVv_PcMnXrMIsC-5">
          <mxGeometry relative="1" as="geometry" />
        </mxCell>
        <mxCell id="w5TJY4iVv_PcMnXrMIsC-21" value="Yes" style="edgeStyle=orthogonalEdgeStyle;rounded=0;orthogonalLoop=1;jettySize=auto;html=1;exitX=1;exitY=0.5;exitDx=0;exitDy=0;entryX=0;entryY=0.5;entryDx=0;entryDy=0;" edge="1" parent="WIyWlLk6GJQsqaUBKTNV-1" source="w5TJY4iVv_PcMnXrMIsC-12" target="w5TJY4iVv_PcMnXrMIsC-18">
          <mxGeometry relative="1" as="geometry" />
        </mxCell>
        <mxCell id="w5TJY4iVv_PcMnXrMIsC-12" value="Check the power source is backup power" style="rhombus;whiteSpace=wrap;html=1;shadow=0;fontFamily=Helvetica;fontSize=12;align=center;strokeWidth=1;spacing=6;spacingTop=-4;" vertex="1" parent="WIyWlLk6GJQsqaUBKTNV-1">
          <mxGeometry x="340" y="190" width="70" height="80" as="geometry" />
        </mxCell>
        <mxCell id="w5TJY4iVv_PcMnXrMIsC-17" style="edgeStyle=orthogonalEdgeStyle;rounded=0;orthogonalLoop=1;jettySize=auto;html=1;exitX=0;exitY=0.5;exitDx=0;exitDy=0;entryX=0;entryY=0.5;entryDx=0;entryDy=0;" edge="1" parent="WIyWlLk6GJQsqaUBKTNV-1" source="w5TJY4iVv_PcMnXrMIsC-15" target="WIyWlLk6GJQsqaUBKTNV-3">
          <mxGeometry relative="1" as="geometry" />
        </mxCell>
        <mxCell id="w5TJY4iVv_PcMnXrMIsC-15" value="Sleep 1 second" style="rounded=1;whiteSpace=wrap;html=1;fontSize=12;glass=0;strokeWidth=1;shadow=0;" vertex="1" parent="WIyWlLk6GJQsqaUBKTNV-1">
          <mxGeometry x="50" y="450" width="210" height="40" as="geometry" />
        </mxCell>
        <mxCell id="w5TJY4iVv_PcMnXrMIsC-19" value="No" style="edgeStyle=orthogonalEdgeStyle;rounded=0;orthogonalLoop=1;jettySize=auto;html=1;entryX=0;entryY=0.5;entryDx=0;entryDy=0;exitX=0.5;exitY=1;exitDx=0;exitDy=0;" edge="1" parent="WIyWlLk6GJQsqaUBKTNV-1" source="w5TJY4iVv_PcMnXrMIsC-18" target="w5TJY4iVv_PcMnXrMIsC-11">
          <mxGeometry relative="1" as="geometry" />
        </mxCell>
        <mxCell id="w5TJY4iVv_PcMnXrMIsC-20" value="Yes" style="edgeStyle=orthogonalEdgeStyle;rounded=0;orthogonalLoop=1;jettySize=auto;html=1;exitX=1;exitY=0.5;exitDx=0;exitDy=0;entryX=0;entryY=0.5;entryDx=0;entryDy=0;" edge="1" parent="WIyWlLk6GJQsqaUBKTNV-1" source="w5TJY4iVv_PcMnXrMIsC-18" target="w5TJY4iVv_PcMnXrMIsC-10">
          <mxGeometry relative="1" as="geometry" />
        </mxCell>
        <mxCell id="w5TJY4iVv_PcMnXrMIsC-18" value="Check the voltage of backup power is lower than 8V" style="rhombus;whiteSpace=wrap;html=1;shadow=0;fontFamily=Helvetica;fontSize=12;align=center;strokeWidth=1;spacing=6;spacingTop=-4;" vertex="1" parent="WIyWlLk6GJQsqaUBKTNV-1">
          <mxGeometry x="470" y="195" width="90" height="70" as="geometry" />
        </mxCell>
        <mxCell id="w5TJY4iVv_PcMnXrMIsC-25" value="Yes" style="edgeStyle=orthogonalEdgeStyle;rounded=0;orthogonalLoop=1;jettySize=auto;html=1;exitX=0.5;exitY=0;exitDx=0;exitDy=0;entryX=0;entryY=0.5;entryDx=0;entryDy=0;" edge="1" parent="WIyWlLk6GJQsqaUBKTNV-1" source="w5TJY4iVv_PcMnXrMIsC-23" target="WIyWlLk6GJQsqaUBKTNV-7">
          <mxGeometry relative="1" as="geometry" />
        </mxCell>
        <mxCell id="w5TJY4iVv_PcMnXrMIsC-27" value="No" style="edgeStyle=orthogonalEdgeStyle;rounded=0;orthogonalLoop=1;jettySize=auto;html=1;entryX=0;entryY=0.5;entryDx=0;entryDy=0;" edge="1" parent="WIyWlLk6GJQsqaUBKTNV-1" source="w5TJY4iVv_PcMnXrMIsC-23" target="w5TJY4iVv_PcMnXrMIsC-26">
          <mxGeometry relative="1" as="geometry" />
        </mxCell>
        <mxCell id="w5TJY4iVv_PcMnXrMIsC-23" value="Check the voltage of Main power is lower than 11V" style="rhombus;whiteSpace=wrap;html=1;shadow=0;fontFamily=Helvetica;fontSize=12;align=center;strokeWidth=1;spacing=6;spacingTop=-4;" vertex="1" parent="WIyWlLk6GJQsqaUBKTNV-1">
          <mxGeometry x="460" y="75" width="100" height="70" as="geometry" />
        </mxCell>
        <mxCell id="w5TJY4iVv_PcMnXrMIsC-26" value="Enter Full Active Mode" style="rounded=1;whiteSpace=wrap;html=1;fontSize=12;glass=0;strokeWidth=1;shadow=0;" vertex="1" parent="WIyWlLk6GJQsqaUBKTNV-1">
          <mxGeometry x="640" y="90" width="120" height="40" as="geometry" />
        </mxCell>
        <mxCell id="w5TJY4iVv_PcMnXrMIsC-31" value="No" style="edgeStyle=orthogonalEdgeStyle;rounded=0;orthogonalLoop=1;jettySize=auto;html=1;exitX=0.5;exitY=1;exitDx=0;exitDy=0;entryX=1;entryY=0.5;entryDx=0;entryDy=0;" edge="1" parent="WIyWlLk6GJQsqaUBKTNV-1" source="w5TJY4iVv_PcMnXrMIsC-28" target="w5TJY4iVv_PcMnXrMIsC-15">
          <mxGeometry relative="1" as="geometry" />
        </mxCell>
        <mxCell id="w5TJY4iVv_PcMnXrMIsC-32" value="Yes" style="edgeStyle=orthogonalEdgeStyle;rounded=0;orthogonalLoop=1;jettySize=auto;html=1;exitX=1;exitY=0.5;exitDx=0;exitDy=0;entryX=0;entryY=0.5;entryDx=0;entryDy=0;" edge="1" parent="WIyWlLk6GJQsqaUBKTNV-1" source="w5TJY4iVv_PcMnXrMIsC-28" target="w5TJY4iVv_PcMnXrMIsC-29">
          <mxGeometry relative="1" as="geometry" />
        </mxCell>
        <mxCell id="w5TJY4iVv_PcMnXrMIsC-28" value="Check the status of system resume is bigger than 0" style="rhombus;whiteSpace=wrap;html=1;shadow=0;fontFamily=Helvetica;fontSize=12;align=center;strokeWidth=1;spacing=6;spacingTop=-4;" vertex="1" parent="WIyWlLk6GJQsqaUBKTNV-1">
          <mxGeometry x="370" y="350" width="70" height="80" as="geometry" />
        </mxCell>
        <mxCell id="w5TJY4iVv_PcMnXrMIsC-33" style="edgeStyle=orthogonalEdgeStyle;rounded=0;orthogonalLoop=1;jettySize=auto;html=1;exitX=0.5;exitY=1;exitDx=0;exitDy=0;entryX=0.5;entryY=1;entryDx=0;entryDy=0;" edge="1" parent="WIyWlLk6GJQsqaUBKTNV-1" source="w5TJY4iVv_PcMnXrMIsC-29" target="w5TJY4iVv_PcMnXrMIsC-15">
          <mxGeometry relative="1" as="geometry" />
        </mxCell>
        <mxCell id="w5TJY4iVv_PcMnXrMIsC-29" value="System wake up and do something" style="rounded=1;whiteSpace=wrap;html=1;fontSize=12;glass=0;strokeWidth=1;shadow=0;" vertex="1" parent="WIyWlLk6GJQsqaUBKTNV-1">
          <mxGeometry x="510" y="370" width="120" height="40" as="geometry" />
        </mxCell>
      </root>
    </mxGraphModel>
  </diagram>
</mxfile>
